<?xml version="1.0" encoding="UTF-8" standalone="no"?>
<svg
   xmlns:dc="http://purl.org/dc/elements/1.1/"
   xmlns:cc="http://creativecommons.org/ns#"
   xmlns:rdf="http://www.w3.org/1999/02/22-rdf-syntax-ns#"
   xmlns:svg="http://www.w3.org/2000/svg"
   xmlns="http://www.w3.org/2000/svg"
   viewBox="0 0 527.96002 470.39999"
   height="470.39999"
   width="527.96002"
   xml:space="preserve"
   id="svg2"
   version="1.1"><metadata
     id="metadata8"><rdf:RDF><cc:Work
         rdf:about=""><dc:format>image/svg+xml</dc:format><dc:type
           rdf:resource="http://purl.org/dc/dcmitype/StillImage" /></cc:Work></rdf:RDF></metadata><defs
     id="defs6" /><g
     transform="matrix(1.3333333,0,0,-1.3333333,0,470.4)"
     id="g10"><g
       transform="scale(0.1)"
       id="g12"><path
         id="path14"
         style="fill:#231f20;fill-opacity:1;fill-rule:nonzero;stroke:none"
         d="m 3443.37,93.7188 c 10.66,0 16.4,5.75 16.4,13.6722 v 0.488 c 0,9.23 -6.47,13.953 -16.92,13.953 h -20.62 V 93.7188 Z m -42.29,46.7302 h 42.53 c 12.91,0 22.87,-3.711 29.61,-10.418 5.21,-5.222 7.94,-12.449 7.94,-20.902 v -0.488 c 0,-15.4222 -8.45,-25.0707 -20.63,-29.5902 l 23.39,-34.2695 h -24.63 l -20.41,30.7773 h -16.65 V 44.7813 h -21.15 z m 106.5,-50.4373 v 0.418 c 0,38.4293 -29.74,69.4293 -69.22,69.4293 -39.72,0 -69.63,-31.468 -69.63,-69.8473 v -0.4414 c 0,-38.4297 29.72,-69.4297 69.22,-69.4297 39.67,0 69.63,31.4688 69.63,69.8711 z m -159.43,-0.4922 v 0.4922 c 0,48.9573 39.77,89.9883 90.24,89.9883 50.49,0 89.76,-40.531 89.76,-89.5 V 90.0117 C 3528.15,41.0391 3488.36,0 3437.9,0 c -50.49,0 -89.75,40.5313 -89.75,89.5195" /><path
         id="path16"
         style="fill:#231f20;fill-opacity:1;fill-rule:nonzero;stroke:none"
         d="m 1512,1224 v 1080 l 557.21,-1080 z m -792.004,0 V 2304 H 1008 V 1224 Z M 2663.98,2304 V 1224 L 2107.8,2304 Z M 3456,2232.41 V 1295.84 L 3383.83,1224 h -215.84 v 1080 h 216.08 z M 3592.83,2808 h -424.84 v 216 H 3456 v 504 H 2376 v -504 h 287.98 V 2808 H 1847.36 L 1475.3,3528 H 719.996 V 3024 H 1007.99 L 1008,2808 H 0 V 2304 H 215.996 V 1224 H 0 V 720 H 1008 V 504 H 719.996 V 0 H 1799.99 V 504 H 1512 v 216 h 817.24 L 2700.71,0 h 467.28 0.19 l -0.19,720 h 424.59 l 367.08,367.08 V 2441.17 L 3592.83,2808" /></g></g></svg>